<svg xmlns="http://www.w3.org/2000/svg" width="14" height="14" viewBox="0 0 14 14">
    <g fill="none" fill-rule="evenodd">
        <g fill="#201F35">
            <g>
                <path d="M2.027.676L7 5.648 11.973.676c.373-.373.978-.373 1.351 0s.373.978 0 1.351L8.352 7l4.972 4.973c.373.373.373.978 0 1.351s-.978.373-1.351 0L7 8.352l-4.973 4.972c-.373.373-.978.373-1.351 0s-.373-.978 0-1.351L5.648 7 .676 2.027C.303 1.654.303 1.05.676.676s.978-.373 1.351 0z" transform="translate(-20 -26) translate(20 26)"/>
            </g>
        </g>
    </g>
</svg>
